<mxfile host="app.diagrams.net" agent="Mozilla/5.0 (Windows NT 10.0; Win64; x64) AppleWebKit/537.36 (KHTML, like Gecko) Chrome/135.0.0.0 Safari/537.36" version="26.2.9">
  <diagram id="6a731a19-8d31-9384-78a2-239565b7b9f0" name="Page-1">
    <mxGraphModel dx="994" dy="654" grid="1" gridSize="10" guides="1" tooltips="1" connect="1" arrows="1" fold="1" page="1" pageScale="1" pageWidth="827" pageHeight="1169" background="none" math="0" shadow="0">
      <root>
        <mxCell id="0" />
        <mxCell id="1" parent="0" />
        <mxCell id="2086" value="" style="rounded=1;whiteSpace=wrap;html=1;strokeColor=none;fillColor=#BAC8D3;fontSize=24;fontColor=#23445D;align=center;opacity=60;" parent="1" vertex="1">
          <mxGeometry x="846" y="284" width="160" height="260" as="geometry" />
        </mxCell>
        <mxCell id="2132" value="" style="shape=mxgraph.cisco.routers.router;html=1;dashed=0;fillColor=#10739E;strokeColor=#ffffff;strokeWidth=2;verticalLabelPosition=bottom;verticalAlign=top;fontFamily=Helvetica;fontSize=36;fontColor=#FFB366" parent="1" vertex="1">
          <mxGeometry x="601" y="40" width="78" height="53" as="geometry" />
        </mxCell>
        <mxCell id="2257" style="edgeStyle=orthogonalEdgeStyle;curved=1;rounded=0;jumpStyle=none;html=1;exitX=0.75;exitY=0;entryX=0.75;entryY=0;shadow=0;labelBackgroundColor=#ffffff;startArrow=none;startFill=0;endArrow=none;endFill=0;endSize=10;jettySize=auto;orthogonalLoop=1;strokeColor=#23445D;strokeWidth=2;fillColor=#F08705;fontFamily=Helvetica;fontSize=25;fontColor=#23445D;align=left;" parent="1" edge="1">
          <mxGeometry relative="1" as="geometry">
            <mxPoint x="813.7500000000005" y="434" as="sourcePoint" />
            <mxPoint x="813.7500000000005" y="434" as="targetPoint" />
          </mxGeometry>
        </mxCell>
        <mxCell id="-_fO3eFcx25Tqtvya-Gl-2278" style="edgeStyle=orthogonalEdgeStyle;rounded=0;orthogonalLoop=1;jettySize=auto;html=1;exitX=0.16;exitY=0.23;exitDx=0;exitDy=0;exitPerimeter=0;startArrow=classic;startFill=1;" edge="1" parent="1" source="-_fO3eFcx25Tqtvya-Gl-2257" target="-_fO3eFcx25Tqtvya-Gl-2262">
          <mxGeometry relative="1" as="geometry">
            <mxPoint x="510" y="180" as="sourcePoint" />
            <Array as="points">
              <mxPoint x="281" y="182" />
            </Array>
          </mxGeometry>
        </mxCell>
        <mxCell id="-_fO3eFcx25Tqtvya-Gl-2279" style="edgeStyle=orthogonalEdgeStyle;rounded=0;orthogonalLoop=1;jettySize=auto;html=1;exitX=0;exitY=0.98;exitDx=0;exitDy=0;exitPerimeter=0;startArrow=classic;startFill=1;" edge="1" parent="1" source="-_fO3eFcx25Tqtvya-Gl-2257" target="-_fO3eFcx25Tqtvya-Gl-2265">
          <mxGeometry relative="1" as="geometry" />
        </mxCell>
        <mxCell id="-_fO3eFcx25Tqtvya-Gl-2281" style="rounded=0;orthogonalLoop=1;jettySize=auto;html=1;exitX=0.98;exitY=0.5;exitDx=0;exitDy=0;exitPerimeter=0;edgeStyle=orthogonalEdgeStyle;startArrow=classic;startFill=1;" edge="1" parent="1" source="-_fO3eFcx25Tqtvya-Gl-2257" target="-_fO3eFcx25Tqtvya-Gl-2271">
          <mxGeometry relative="1" as="geometry" />
        </mxCell>
        <mxCell id="-_fO3eFcx25Tqtvya-Gl-2257" value="" style="shape=mxgraph.cisco.switches.workgroup_switch;html=1;dashed=0;fillColor=#10739E;strokeColor=#ffffff;strokeWidth=2;verticalLabelPosition=bottom;verticalAlign=top;fontFamily=Helvetica;fontSize=36;fontColor=#FFB366" vertex="1" parent="1">
          <mxGeometry x="589.5" y="170" width="101" height="50" as="geometry" />
        </mxCell>
        <mxCell id="-_fO3eFcx25Tqtvya-Gl-2259" value="" style="rounded=1;whiteSpace=wrap;html=1;strokeColor=none;fillColor=#BAC8D3;fontSize=24;fontColor=#23445D;align=center;opacity=60;" vertex="1" parent="1">
          <mxGeometry x="650" y="284" width="160" height="260" as="geometry" />
        </mxCell>
        <mxCell id="-_fO3eFcx25Tqtvya-Gl-2260" value="" style="rounded=1;whiteSpace=wrap;html=1;strokeColor=none;fillColor=#BAC8D3;fontSize=24;fontColor=#23445D;align=center;opacity=60;" vertex="1" parent="1">
          <mxGeometry x="440" y="284" width="160" height="260" as="geometry" />
        </mxCell>
        <mxCell id="-_fO3eFcx25Tqtvya-Gl-2261" value="" style="rounded=1;whiteSpace=wrap;html=1;strokeColor=none;fillColor=#BAC8D3;fontSize=24;fontColor=#23445D;align=center;opacity=60;" vertex="1" parent="1">
          <mxGeometry x="240" y="284" width="160" height="260" as="geometry" />
        </mxCell>
        <mxCell id="-_fO3eFcx25Tqtvya-Gl-2262" value="" style="shape=mxgraph.cisco.computers_and_peripherals.terminal;sketch=0;html=1;pointerEvents=1;dashed=0;fillColor=#036897;strokeColor=#ffffff;strokeWidth=2;verticalLabelPosition=bottom;verticalAlign=top;align=center;outlineConnect=0;" vertex="1" parent="1">
          <mxGeometry x="250" y="300" width="61" height="54" as="geometry" />
        </mxCell>
        <mxCell id="-_fO3eFcx25Tqtvya-Gl-2263" value="" style="shape=mxgraph.cisco.computers_and_peripherals.terminal;sketch=0;html=1;pointerEvents=1;dashed=0;fillColor=#036897;strokeColor=#ffffff;strokeWidth=2;verticalLabelPosition=bottom;verticalAlign=top;align=center;outlineConnect=0;" vertex="1" parent="1">
          <mxGeometry x="320" y="370" width="61" height="54" as="geometry" />
        </mxCell>
        <mxCell id="-_fO3eFcx25Tqtvya-Gl-2264" value="" style="shape=mxgraph.cisco.computers_and_peripherals.terminal;sketch=0;html=1;pointerEvents=1;dashed=0;fillColor=#036897;strokeColor=#ffffff;strokeWidth=2;verticalLabelPosition=bottom;verticalAlign=top;align=center;outlineConnect=0;" vertex="1" parent="1">
          <mxGeometry x="250" y="460" width="61" height="54" as="geometry" />
        </mxCell>
        <mxCell id="-_fO3eFcx25Tqtvya-Gl-2265" value="" style="shape=mxgraph.cisco.computers_and_peripherals.terminal;sketch=0;html=1;pointerEvents=1;dashed=0;fillColor=#036897;strokeColor=#ffffff;strokeWidth=2;verticalLabelPosition=bottom;verticalAlign=top;align=center;outlineConnect=0;" vertex="1" parent="1">
          <mxGeometry x="460" y="316" width="61" height="54" as="geometry" />
        </mxCell>
        <mxCell id="-_fO3eFcx25Tqtvya-Gl-2266" value="" style="shape=mxgraph.cisco.computers_and_peripherals.terminal;sketch=0;html=1;pointerEvents=1;dashed=0;fillColor=#036897;strokeColor=#ffffff;strokeWidth=2;verticalLabelPosition=bottom;verticalAlign=top;align=center;outlineConnect=0;" vertex="1" parent="1">
          <mxGeometry x="730" y="450" width="61" height="54" as="geometry" />
        </mxCell>
        <mxCell id="-_fO3eFcx25Tqtvya-Gl-2267" value="" style="shape=mxgraph.cisco.computers_and_peripherals.terminal;sketch=0;html=1;pointerEvents=1;dashed=0;fillColor=#036897;strokeColor=#ffffff;strokeWidth=2;verticalLabelPosition=bottom;verticalAlign=top;align=center;outlineConnect=0;" vertex="1" parent="1">
          <mxGeometry x="660" y="290" width="61" height="54" as="geometry" />
        </mxCell>
        <mxCell id="-_fO3eFcx25Tqtvya-Gl-2268" value="" style="shape=mxgraph.cisco.computers_and_peripherals.terminal;sketch=0;html=1;pointerEvents=1;dashed=0;fillColor=#036897;strokeColor=#ffffff;strokeWidth=2;verticalLabelPosition=bottom;verticalAlign=top;align=center;outlineConnect=0;" vertex="1" parent="1">
          <mxGeometry x="740" y="333" width="61" height="54" as="geometry" />
        </mxCell>
        <mxCell id="-_fO3eFcx25Tqtvya-Gl-2269" value="" style="shape=mxgraph.cisco.computers_and_peripherals.terminal;sketch=0;html=1;pointerEvents=1;dashed=0;fillColor=#036897;strokeColor=#ffffff;strokeWidth=2;verticalLabelPosition=bottom;verticalAlign=top;align=center;outlineConnect=0;" vertex="1" parent="1">
          <mxGeometry x="660" y="370" width="61" height="54" as="geometry" />
        </mxCell>
        <mxCell id="-_fO3eFcx25Tqtvya-Gl-2270" value="" style="shape=mxgraph.cisco.computers_and_peripherals.terminal;sketch=0;html=1;pointerEvents=1;dashed=0;fillColor=#036897;strokeColor=#ffffff;strokeWidth=2;verticalLabelPosition=bottom;verticalAlign=top;align=center;outlineConnect=0;" vertex="1" parent="1">
          <mxGeometry x="510" y="366" width="61" height="54" as="geometry" />
        </mxCell>
        <mxCell id="-_fO3eFcx25Tqtvya-Gl-2271" value="" style="shape=mxgraph.cisco.computers_and_peripherals.terminal;sketch=0;html=1;pointerEvents=1;dashed=0;fillColor=#036897;strokeColor=#ffffff;strokeWidth=2;verticalLabelPosition=bottom;verticalAlign=top;align=center;outlineConnect=0;" vertex="1" parent="1">
          <mxGeometry x="846" y="312" width="61" height="54" as="geometry" />
        </mxCell>
        <mxCell id="-_fO3eFcx25Tqtvya-Gl-2273" value="" style="shape=mxgraph.cisco.computers_and_peripherals.terminal;sketch=0;html=1;pointerEvents=1;dashed=0;fillColor=#036897;strokeColor=#ffffff;strokeWidth=2;verticalLabelPosition=bottom;verticalAlign=top;align=center;outlineConnect=0;" vertex="1" parent="1">
          <mxGeometry x="930" y="312" width="61" height="54" as="geometry" />
        </mxCell>
        <mxCell id="-_fO3eFcx25Tqtvya-Gl-2274" value="" style="shape=mxgraph.cisco.computers_and_peripherals.terminal;sketch=0;html=1;pointerEvents=1;dashed=0;fillColor=#036897;strokeColor=#ffffff;strokeWidth=2;verticalLabelPosition=bottom;verticalAlign=top;align=center;outlineConnect=0;" vertex="1" parent="1">
          <mxGeometry x="846" y="387" width="61" height="54" as="geometry" />
        </mxCell>
        <mxCell id="-_fO3eFcx25Tqtvya-Gl-2275" value="" style="shape=mxgraph.cisco.computers_and_peripherals.terminal;sketch=0;html=1;pointerEvents=1;dashed=0;fillColor=#036897;strokeColor=#ffffff;strokeWidth=2;verticalLabelPosition=bottom;verticalAlign=top;align=center;outlineConnect=0;" vertex="1" parent="1">
          <mxGeometry x="930" y="387" width="61" height="54" as="geometry" />
        </mxCell>
        <mxCell id="-_fO3eFcx25Tqtvya-Gl-2276" value="" style="shape=mxgraph.cisco.computers_and_peripherals.terminal;sketch=0;html=1;pointerEvents=1;dashed=0;fillColor=#036897;strokeColor=#ffffff;strokeWidth=2;verticalLabelPosition=bottom;verticalAlign=top;align=center;outlineConnect=0;" vertex="1" parent="1">
          <mxGeometry x="846" y="460" width="61" height="54" as="geometry" />
        </mxCell>
        <mxCell id="-_fO3eFcx25Tqtvya-Gl-2277" value="" style="shape=mxgraph.cisco.computers_and_peripherals.terminal;sketch=0;html=1;pointerEvents=1;dashed=0;fillColor=#036897;strokeColor=#ffffff;strokeWidth=2;verticalLabelPosition=bottom;verticalAlign=top;align=center;outlineConnect=0;" vertex="1" parent="1">
          <mxGeometry x="930" y="460" width="61" height="54" as="geometry" />
        </mxCell>
        <mxCell id="-_fO3eFcx25Tqtvya-Gl-2280" style="edgeStyle=orthogonalEdgeStyle;rounded=0;orthogonalLoop=1;jettySize=auto;html=1;exitX=0.87;exitY=0.74;exitDx=0;exitDy=0;exitPerimeter=0;entryX=0.5;entryY=0;entryDx=0;entryDy=0;entryPerimeter=0;startArrow=classic;startFill=1;" edge="1" parent="1" source="-_fO3eFcx25Tqtvya-Gl-2257" target="-_fO3eFcx25Tqtvya-Gl-2267">
          <mxGeometry relative="1" as="geometry" />
        </mxCell>
        <mxCell id="-_fO3eFcx25Tqtvya-Gl-2283" value="" style="endArrow=classic;startArrow=classic;html=1;rounded=0;" edge="1" parent="1">
          <mxGeometry width="50" height="50" relative="1" as="geometry">
            <mxPoint x="1630" y="300" as="sourcePoint" />
            <mxPoint x="1680" y="250" as="targetPoint" />
          </mxGeometry>
        </mxCell>
        <mxCell id="-_fO3eFcx25Tqtvya-Gl-2284" value="" style="endArrow=classic;startArrow=classic;html=1;rounded=0;entryX=0.5;entryY=1;entryDx=0;entryDy=0;entryPerimeter=0;exitX=0.5;exitY=0;exitDx=0;exitDy=0;exitPerimeter=0;" edge="1" parent="1" source="-_fO3eFcx25Tqtvya-Gl-2257" target="2132">
          <mxGeometry width="50" height="50" relative="1" as="geometry">
            <mxPoint x="615" y="150" as="sourcePoint" />
            <mxPoint x="665" y="100" as="targetPoint" />
          </mxGeometry>
        </mxCell>
      </root>
    </mxGraphModel>
  </diagram>
</mxfile>
